<?xml version="1.0" encoding="UTF-8" standalone="no"?>
<!DOCTYPE svg PUBLIC "-//W3C//DTD SVG 1.1//EN" "http://www.w3.org/Graphics/SVG/1.1/DTD/svg11.dtd">
<svg width="100%" height="100%" viewBox="0 0 1500 1500" version="1.1" xmlns="http://www.w3.org/2000/svg" xmlns:xlink="http://www.w3.org/1999/xlink" xml:space="preserve" xmlns:serif="http://www.serif.com/" style="fill-rule:evenodd;clip-rule:evenodd;stroke-linejoin:round;stroke-miterlimit:2;">
    <g transform="matrix(1,0,0,1,-8882.54,-900)">
        <g transform="matrix(0.988892,0,0,1,5639.01,0)">
            <g transform="matrix(0.857871,0,0,0.848341,3382.6,1018.34)">
                <g transform="matrix(0.927184,0.374607,-0.374607,0.927184,185.137,-197.517)">
                    <g transform="matrix(1.06831,0,0,1.10058,-40.886,-15.9829)">
                        <path d="M1301.95,445.532C1301.95,388.72 1278.7,334.235 1237.31,294.063C1195.93,253.891 1139.8,231.322 1081.27,231.322L178.68,231.322C178.68,231.322 178.68,231.323 178.68,231.323C178.68,381.866 304.406,503.906 459.497,503.906C792.207,503.906 1301.95,503.906 1301.95,503.906C1301.95,503.906 1301.95,479.613 1301.95,445.532Z"/>
                    </g>
                    <g transform="matrix(0.931745,1.02129e-16,2.0187e-16,1.10058,133.516,345.411)">
                        <path d="M1301.95,231.322L178.68,231.322C178.68,231.322 178.68,231.323 178.68,231.323C178.68,381.866 322.834,503.906 500.656,503.906C832.575,503.906 1301.95,503.906 1301.95,503.906L1301.95,231.322Z"/>
                    </g>
                    <g transform="matrix(0.801233,0,0,1.10058,306.836,709.668)">
                        <path d="M1301.95,231.322L178.68,231.322C178.68,231.322 178.68,231.323 178.68,231.323C178.68,381.866 346.315,503.906 553.103,503.906L1007.71,503.906C1085.75,503.906 1160.59,481.338 1215.77,441.166C1270.95,400.994 1301.95,346.509 1301.95,289.697L1301.95,231.322Z"/>
                    </g>
                </g>
                <g transform="matrix(131.451,0,0,131.451,1272.65,565.27)">
                    <path d="M0.239,-0.318L0.239,-0.657L0.11,-0.657L0.11,-0.716L0.435,-0.716L0.435,-0.657L0.305,-0.657L0.305,-0.318L0.239,-0.318ZM0.479,-0.318L0.479,-0.716L0.577,-0.716L0.678,-0.398L0.775,-0.716L0.871,-0.716L0.871,-0.318L0.81,-0.318L0.81,-0.652L0.708,-0.318L0.647,-0.318L0.541,-0.657L0.541,-0.318L0.479,-0.318Z" style="fill-rule:nonzero;"/>
                </g>
            </g>
        </g>
    </g>
</svg>
